<svg xmlns="http://www.w3.org/2000/svg" viewBox="0 0 1440 320">
  <path fill="#fff" fill-opacity="1" d="M0,256L53.3,0L106.7,224L160,32L213.3,256L266.7,224L320,96L373.3,160L426.7,256L480,224L533.3,64L586.7,160L640,64L693.3,96L746.7,160L800,288L853.3,224L906.7,32L960,64L1013.3,224L1066.7,64L1120,288L1173.3,128L1226.7,256L1280,256L1333.3,96L1386.7,96L1440,64L1440,320L1386.7,320L1333.3,320L1280,320L1226.7,320L1173.3,320L1120,320L1066.7,320L1013.3,320L960,320L906.7,320L853.3,320L800,320L746.7,320L693.3,320L640,320L586.7,320L533.3,320L480,320L426.7,320L373.3,320L320,320L266.7,320L213.3,320L160,320L106.7,320L53.3,320L0,320Z"></path>
</svg>