
<svg xmlns="http://www.w3.org/2000/svg" viewBox="0 0 1440 320" preserveAspectRatio="none">
  <path fill="#fff" fill-opacity="1" d="M0,64L26.7,85.3C53.3,107,107,149,160,165.3C213.3,181,267,171,320,149.3C373.3,128,427,96,480,80C533.3,64,587,64,640,53.3C693.3,43,747,21,800,26.7C853.3,32,907,64,960,90.7C1013.3,117,1067,139,1120,122.7C1173.3,107,1227,53,1280,42.7C1333.3,32,1387,64,1413,80L1440,96L1440,320L1413.3,320C1386.7,320,1333,320,1280,320C1226.7,320,1173,320,1120,320C1066.7,320,1013,320,960,320C906.7,320,853,320,800,320C746.7,320,693,320,640,320C586.7,320,533,320,480,320C426.7,320,373,320,320,320C266.7,320,213,320,160,320C106.7,320,53,320,27,320L0,320Z"></path>
</svg>